{"title":"Millions 2004 480p HDRip titler","uid":10146388,"size":1185448913,"categoryP":"video","categoryS":"movies","magnet":"?xt=urn:btih:b477d40a6bbb341a0436f77c3f3330d0a9f0cb32&amp;dn=Millions+2004+480p+HDRip+titler&amp;tr=udp%3A%2F%2Ftracker.openbittorrent.com%3A80&amp;tr=udp%3A%2F%2Fopen.demonii.com%3A1337&amp;tr=udp%3A%2F%2Ftracker.coppersurfer.tk%3A6969&amp;tr=udp%3A%2F%2Fexodus.desync.com%3A6969","seeders":1,"leechers":0,"uploader":"movieZ.freak","files":5,"time":1400060998,"description":"SOURCE: Millions 720p HDTV x264 - ESiR\n\n\n &lt;a href=&quot;\nhttp://www.imdb.com/title/tt0366777/&quot; rel=&quot;nofollow&quot; target=&quot;_NEW&quot;&gt;\nhttp://www.imdb.com/title/tt0366777/&lt;/a&gt;\n\n\n &lt;a href=&quot;\nhttp://www.rottentomatoes.com/m/millions/&quot; rel=&quot;nofollow&quot; target=&quot;_NEW&quot;&gt;\nhttp://www.rottentomatoes.com/m/millions/&lt;/a&gt;\n\n\n &lt;a href=&quot;\nhttp://en.wikipedia.org/wiki/Millions&quot; rel=&quot;nofollow&quot; target=&quot;_NEW&quot;&gt;\nhttp://en.wikipedia.org/wiki/Millions&lt;/a&gt;\n\n\n\n- SAMPLE: Yes\n\n\n- SUBTITLE: English\n\n\n- LANGUAGE / AUDIO: English\n\n\n\nSCREENSHOTS:\n-------------------    &lt;a href=&quot;\nhttp://someimage.com/NvBm&quot; rel=&quot;nofollow&quot; target=&quot;_NEW&quot;&gt;\nhttp://someimage.com/NvBm&lt;/a&gt;\n\n\n\n\nDIRECTOR: Danny Boyle\n &lt;a href=&quot;\nhttp://www.imdb.com/name/nm0000965/&quot; rel=&quot;nofollow&quot; target=&quot;_NEW&quot;&gt;\nhttp://www.imdb.com/name/nm0000965/&lt;/a&gt;\n\n\n\nCAST: Alex Etel, Lewis McGibbon, James Nesbitt, Daisy Donovan, Alun Armstrong, Enzo Cilenti,Jane Hogarth,...\n\n\n\nPLOT:\n-----------\nDirector Danny Boyle revisits a theme from his Shallow Grave and Trainspotting days ...greed... but focuses on a much younger protagonist with this comedy drama. Millions opens with recent widower Ronnie (James Nesbitt) moving his two precocious pre-pubescent sons to the suburbs. Missing his mother and the comforts of his old neighborhood, the young Damian (Alex Etel) builds a cardboard-box fort on the outskirts of the suburb, where one day his placid introvert existence is literally crushed by a giant gym bag full of thousands of pounds' worth of cash. Less concerned with the origin of the money than with how to spend it, Damian and his older brother, Anthony (Lewis McGibbon), decide to keep it a secret from their father, which becomes an increasingly tricky proposition as the days pass. His conscience getting in the way of his spending, Damian debates the ethics of his ill-gotten gains with a handful of imaginary saints, and begins to try to spend his cash a little more altruistically. But his charitable deeds inadvertently attract the attention of a mysterious, threatening man who's desperate to get his hands on the money. Marking a distinct change of pace for Boyle after the horror\nfilm 28 Days Later, Millions world-premiered at the 2004 Toronto Film Festival.\n\n\n************************************\n\n- Duration: 1h 34mn\n\n- Bit rate: 1510 Kbps\n\n- Res: 854 x 480\n\n- AR: 16:9\n\n- FPS: 25.000 fps\n\n- Audio: AC3, 2 channels, 128 Kbps\n\n************************************\n\n\nGeneral\n-------------\nFormat : AVI\nFormat/Info : Audio Video Interleave\nFile size : 1.09 GiB\nDuration : 1h 34mn\nOverall bit rate : 1648 Kbps\nWriting library : VirtualDub build 35491\n\n\nVideo\n-----------\nFormat : MPEG-4 Visual\nFormat profile : Advanced Simple@L5\nFormat settings, BVOP : 2\nFormat settings, QPel : No\nFormat settings, GMC : No warppoints\nFormat settings, Matrix : Default (H.263)\nCodec ID : XVID\nCodec ID/Hint : XviD\nDuration : 1h 34mn\nBit rate : 1510 Kbps\nWidth : 854 pixels\nHeight : 480 pixels\nDisplay aspect ratio : 16:9\nFrame rate : 25.000 fps\nColor space : YUV\nChroma subsampling : 4:2:0\nBit depth : 8 bits\nScan type : Progressive\nCompression mode : Lossy\nBits/(Pixel*Frame) : 0.147\nStream size : 1 019 MiB (92%)\nWriting library : XviD 65\n\n\nAudio\n---------\nFormat : AC-3\nFormat/Info : Audio Coding 3\nMode extension : CM (complete main)\nFormat settings, Endianness : Big\nCodec ID : 2000\nDuration : 1h 34mn\nBit rate mode : Constant\nBit rate : 128 Kbps\nChannel(s) : 2 channels\nChannel positions : Front: L R\nSampling rate : 48.0 KHz\nBit depth : 16 bits\nCompression mode : Lossy\nStream size : 86.3 MiB (8%)\nAlignment : Aligned on interleaves\nInterleave, duration : 40 ms (1.00 video frame)\nInterleave, preload duration : 512 ms","torrent":{"xt":"urn:btih:b477d40a6bbb341a0436f77c3f3330d0a9f0cb32","amp;dn":"Millions+2004+480p+HDRip+titler","amp;tr":["udp%3A%2F%2Ftracker.openbittorrent.com%3A80","udp%3A%2F%2Fopen.demonii.com%3A1337","udp%3A%2F%2Ftracker.coppersurfer.tk%3A6969","udp%3A%2F%2Fexodus.desync.com%3A6969"],"infoHash":"b477d40a6bbb341a0436f77c3f3330d0a9f0cb32","infoHashBuffer":{"type":"Buffer","data":[180,119,212,10,107,187,52,26,4,54,247,124,63,51,48,208,169,240,203,50]},"announce":[],"urlList":[]}}